<svg width="19" height="19" viewBox="0 0 19 19" fill="none" xmlns="http://www.w3.org/2000/svg">
<path d="M18.2288 2.89642C18.0494 2.41022 17.7631 1.97015 17.3912 1.60893C17.03 1.237 16.5902 0.95076 16.1037 0.771339C15.7092 0.618103 15.1165 0.435707 14.0248 0.386017C12.8438 0.332161 12.4897 0.320557 9.49997 0.320557C6.50993 0.320557 6.15585 0.331863 4.97518 0.385719C3.88348 0.435707 3.29047 0.618103 2.89622 0.771339C2.40974 0.95076 1.96967 1.237 1.60874 1.60893C1.23681 1.97015 0.950569 2.40993 0.770851 2.89642C0.617615 3.29096 0.435219 3.88397 0.385529 4.97567C0.331673 6.15633 0.320068 6.51041 0.320068 9.50046C0.320068 12.4902 0.331673 12.8443 0.385529 14.0252C0.435219 15.1169 0.617615 15.7097 0.770851 16.1042C0.950569 16.5907 1.23651 17.0305 1.60844 17.3917C1.96967 17.7636 2.40944 18.0499 2.89593 18.2293C3.29047 18.3828 3.88348 18.5652 4.97518 18.6149C6.15585 18.6688 6.50963 18.6801 9.49967 18.6801C12.49 18.6801 12.8441 18.6688 14.0245 18.6149C15.1162 18.5652 15.7092 18.3828 16.1037 18.2293C17.0803 17.8526 17.8521 17.0807 18.2288 16.1042C18.382 15.7097 18.5644 15.1169 18.6144 14.0252C18.6683 12.8443 18.6796 12.4902 18.6796 9.50046C18.6796 6.51041 18.6683 6.15633 18.6144 4.97567C18.5647 3.88397 18.3823 3.29096 18.2288 2.89642ZM9.49997 15.2499C6.32426 15.2499 3.74989 12.6759 3.74989 9.50016C3.74989 6.32445 6.32426 3.75037 9.49997 3.75037C12.6754 3.75037 15.2498 6.32445 15.2498 9.50016C15.2498 12.6759 12.6754 15.2499 9.49997 15.2499ZM15.4771 4.86677C14.735 4.86677 14.1334 4.26513 14.1334 3.52305C14.1334 2.78097 14.735 2.17933 15.4771 2.17933C16.2192 2.17933 16.8208 2.78097 16.8208 3.52305C16.8205 4.26513 16.2192 4.86677 15.4771 4.86677Z" fill="#3B5998"/>
</svg>
